HIERARCHY
ROOT root
{
	OFFSET 0.000000 0.000000 0.000000
	CHANNELS 6 Xposition Yposition Zposition Zrotation Yrotation Xrotation
	JOINT lhip
	{
		OFFSET 0.058581 -0.082280 -0.017664
		CHANNELS 3 Zrotation Yrotation Xrotation
		JOINT lknee
		{
			OFFSET 0.043451 -0.386469 0.008037
			CHANNELS 3 Zrotation Yrotation Xrotation
			JOINT lankle
			{
				OFFSET -0.014790 -0.426874 -0.037428
				CHANNELS 3 Zrotation Yrotation Xrotation
				JOINT ltoe
				{
					OFFSET 0.041054 -0.060286 0.122042
					CHANNELS 3 Zrotation Yrotation Xrotation
					End Site
					{
						OFFSET 0.000000 0.000000 0.000000
					}
				}
			}
		}
	}
	JOINT rhip
	{
		OFFSET -0.060310 -0.090513 -0.013543
		CHANNELS 3 Zrotation Yrotation Xrotation
		JOINT rknee
		{
			OFFSET -0.043257 -0.383688 -0.004843
			CHANNELS 3 Zrotation Yrotation Xrotation
			JOINT rankle
			{
				OFFSET 0.019056 -0.420046 -0.034562
				CHANNELS 3 Zrotation Yrotation Xrotation
				JOINT rtoe
				{
					OFFSET -0.034840 -0.062106 0.130323
					CHANNELS 3 Zrotation Yrotation Xrotation
					End Site
					{
						OFFSET 0.000000 0.000000 0.000000
					}
				}
			}
		}
	}
	JOINT lowerback
	{
		OFFSET 0.004439 0.124404 -0.038385
		CHANNELS 3 Zrotation Yrotation Xrotation
		JOINT upperback
		{
			OFFSET 0.004488 0.137956 0.026820
			CHANNELS 3 Zrotation Yrotation Xrotation
			JOINT chest
			{
				OFFSET -0.002265 0.056032 0.002855
				CHANNELS 3 Zrotation Yrotation Xrotation
				JOINT lowerneck
				{
					OFFSET -0.013390 0.211636 -0.033468
					CHANNELS 3 Zrotation Yrotation Xrotation
					JOINT upperneck
					{
						OFFSET 0.010113 0.088937 0.050410
						CHANNELS 3 Zrotation Yrotation Xrotation
						End Site
						{
							OFFSET 0.000000 0.000000 0.000000
						}
					}
				}
				JOINT lclavicle
				{
					OFFSET 0.071702 0.114000 -0.018898
					CHANNELS 3 Zrotation Yrotation Xrotation
					JOINT lshoulder
					{
						OFFSET 0.122921 0.045205 -0.019046
						CHANNELS 3 Zrotation Yrotation Xrotation
						JOINT lelbow
						{
							OFFSET 0.255332 -0.015649 -0.022946
							CHANNELS 3 Zrotation Yrotation Xrotation
							JOINT lwrist
							{
								OFFSET 0.265709 0.012698 -0.007375
								CHANNELS 3 Zrotation Yrotation Xrotation
								End Site
								{
									OFFSET 0.000000 0.000000 0.000000
								}
							}
						}
					}
				}
				JOINT rclavicle
				{
					OFFSET -0.082954 0.112472 -0.023707
					CHANNELS 3 Zrotation Yrotation Xrotation
					JOINT rshoulder
					{
						OFFSET -0.113228 0.046853 -0.008472
						CHANNELS 3 Zrotation Yrotation Xrotation
						JOINT relbow
						{
							OFFSET -0.260127 -0.014369 -0.031269
							CHANNELS 3 Zrotation Yrotation Xrotation
							JOINT rwrist
							{
								OFFSET -0.269108 0.006794 -0.006027
								CHANNELS 3 Zrotation Yrotation Xrotation
								End Site
								{
									OFFSET 0.000000 0.000000 0.000000
								}
							}
						}
					}
				}
			}
		}
	}
}
MOTION
Frames: 15
Frame Time: 0.033333
0.020077 0.041126 0.832701 -169.749367 -5.475409 96.691295 13.725834 16.372502 -47.533986 2.650077 19.409266 53.594488 -2.394743 15.422238 -14.742370 0.000000 -0.000000 0.000000 -14.890331 -11.019075 -51.240324 -0.820607 -7.731485 77.092526 2.633101 -9.979882 -29.145015 0.000000 -0.000000 0.000000 -1.766685 1.881516 64.334578 -0.161906 -1.155046 -5.463430 2.544017 -0.408094 -5.213255 -4.878289 -0.200610 -23.382942 4.569114 -13.187767 5.381332 -24.694765 -25.720868 -0.038590 -11.495643 -14.078603 -0.060075 11.616197 -57.287363 -7.836978 3.839652 -12.772510 -15.758645 31.888083 31.286999 7.408201 21.927094 27.145807 -4.379770 -35.781007 41.974311 -44.213475 4.397213 11.736897 -11.743091 
0.030284 0.039641 0.832512 -170.008438 -5.796476 96.689753 14.131567 16.617657 -46.939535 2.226274 19.486251 52.411099 -2.704039 15.352113 -14.562864 0.000000 -0.000000 0.000000 -14.544073 -10.710758 -51.721099 -0.702108 -7.920715 77.344908 2.295582 -10.114528 -29.547085 0.000000 -0.000000 0.000000 -1.910360 1.634797 63.837192 -0.193976 -0.853843 -5.184641 2.382507 -0.403735 -5.363906 -4.835478 -0.101305 -23.593182 4.146842 -13.314967 6.851115 -24.432871 -25.503672 -0.170141 -12.130194 -14.271694 0.094950 11.497502 -57.509420 -7.734368 4.049891 -13.005771 -15.947054 31.263189 31.096440 7.242705 22.803290 27.418779 -4.302958 -36.207924 41.744020 -44.761399 4.074362 11.971999 -11.226218 
0.039393 0.037985 0.832223 -170.212324 -6.055588 96.653015 14.491560 16.843525 -46.455138 1.725917 19.433859 51.363411 -2.959362 14.974981 -14.103342 0.000000 -0.000000 0.000000 -14.185349 -10.376891 -52.107711 -1.136335 -8.162251 77.617277 2.082920 -9.915506 -29.779648 0.000000 -0.000000 0.000000 -1.999097 1.282138 63.433450 -0.087968 -0.618626 -5.394656 2.351362 -0.380148 -5.174605 -5.015548 0.113074 -23.072806 3.358386 -13.234394 8.048645 -24.861174 -25.197575 0.014515 -12.552747 -14.477919 0.323551 11.925989 -57.549564 -7.617951 4.217834 -12.998055 -16.117495 31.604587 30.876739 7.632347 22.095773 27.575272 -4.449495 -35.736286 41.792313 -43.670427 3.555601 11.912785 -12.393941 
0.047668 0.035920 0.832360 -170.358562 -6.395733 96.732266 14.663043 16.788541 -46.071716 1.093742 19.415976 50.092444 -2.958090 15.139282 -13.507353 0.000000 -0.000000 0.000000 -14.137653 -10.139719 -52.576190 -1.127612 -8.530393 77.736778 1.802237 -10.062327 -29.768001 0.000000 -0.000000 0.000000 -1.945795 0.499145 63.124056 -0.120262 -0.400030 -5.483029 2.019541 -0.322627 -5.135317 -5.116067 -0.173353 -23.026338 2.967572 -13.192641 9.318732 -24.960702 -24.906478 -0.101448 -13.172991 -14.691328 0.496868 11.820763 -57.688295 -7.442350 4.849024 -12.797567 -16.148866 30.976715 30.636586 7.652438 22.729483 27.983262 -4.641592 -36.055245 41.820996 -43.821533 3.195898 11.753641 -12.421557 
0.055529 0.034393 0.832238 -170.948500 -6.833099 96.510972 14.806603 17.061157 -45.194028 0.683162 19.385164 49.076049 -3.288961 14.522174 -13.353407 0.000000 -0.000000 0.000000 -14.106382 -9.616578 -52.861732 -1.134241 -8.587202 77.970811 1.664310 -9.828636 -30.053899 0.000000 -0.000000 0.000000 -2.019627 0.186284 62.911255 -0.218135 -0.217743 -5.148979 1.841587 -0.352210 -5.373080 -5.226938 -0.277586 -22.513440 2.643930 -12.974686 10.175231 -25.278814 -24.735700 0.070198 -13.690345 -14.725761 0.634521 12.103047 -57.731172 -7.287556 4.760563 -12.950049 -16.384977 30.884955 30.533513 7.830267 22.891736 28.151841 -4.796066 -36.108471 41.745507 -43.521318 3.250305 11.974790 -12.564775 
0.063594 0.032808 0.831830 -171.568274 -7.353766 96.593895 15.049264 17.148490 -44.525963 0.408300 19.723588 48.072643 -3.539403 13.876139 -13.732159 0.000000 -0.000000 0.000000 -14.070713 -8.907444 -53.478955 -1.012585 -8.583727 78.173097 1.404983 -10.400475 -30.174401 0.000000 -0.000000 0.000000 -2.394133 0.075678 62.339907 -0.205605 -0.025563 -4.951888 1.907474 -0.398825 -5.319586 -5.086173 -0.306990 -22.519718 2.009967 -13.015937 11.233822 -25.635760 -24.346331 0.456395 -14.130291 -15.156526 0.407264 11.880736 -57.725270 -7.415279 5.128058 -13.119511 -16.029106 31.177953 30.322602 8.101032 22.287166 28.819186 -5.319673 -36.508869 41.892833 -43.648096 1.375981 14.296661 -10.285716 
0.070241 0.030697 0.832359 -172.050796 -7.967604 96.702923 14.786649 16.833064 -44.224429 -0.159875 19.280117 47.065334 -3.433118 14.403804 -13.823640 0.000000 -0.000000 0.000000 -14.115608 -8.427218 -53.943045 -0.862250 -8.413637 78.086345 1.271645 -10.796061 -30.251369 0.000000 -0.000000 0.000000 -2.576210 -0.254486 62.065801 -0.150988 -0.122531 -5.269225 1.945128 -0.504495 -5.105586 -5.109173 -0.666299 -22.190253 1.954618 -12.866838 11.668009 -26.070221 -24.318061 0.657438 -14.737794 -15.097452 0.960496 12.478343 -57.512545 -7.371065 5.636061 -12.816264 -16.466939 30.814951 30.385813 7.947805 22.748279 28.528029 -4.511466 -35.955078 41.689310 -43.065736 2.524482 12.282326 -12.775472 
0.076444 0.028712 0.832592 -173.129175 -8.257319 96.765200 15.087155 17.121523 -43.411658 -0.428464 19.410308 46.337262 -3.709353 13.574759 -14.179789 0.000000 -0.000000 0.000000 -13.980480 -7.425251 -54.391295 -0.765603 -8.335371 77.967902 1.021126 -10.962958 -30.276080 0.000000 -0.000000 0.000000 -2.900044 -0.327289 61.661932 -0.201757 0.085280 -5.071928 1.954938 -0.296030 -5.135315 -4.772996 -0.868133 -21.914612 1.885650 -13.384658 12.324842 -26.207858 -24.344310 1.091991 -15.739190 -15.382808 1.191635 13.280252 -57.261131 -8.068937 5.725373 -12.540776 -16.340666 30.743308 30.280606 8.150931 22.556329 28.538291 -4.850374 -35.849865 41.928912 -42.397387 2.284749 12.506249 -13.171921 
0.080839 0.028560 0.834424 -173.468469 -8.809778 96.804829 14.613841 16.733285 -43.045151 -0.698137 18.946416 45.546277 -3.469829 13.701920 -14.560437 0.000000 -0.000000 0.000000 -14.260714 -7.344230 -54.301992 -0.524341 -8.298254 77.499438 0.995667 -10.923889 -30.284218 0.000000 -0.000000 0.000000 -2.770757 -1.012717 61.621173 -0.179134 -0.016302 -5.304013 1.864172 -0.488342 -5.052591 -4.298247 -1.661687 -22.580003 1.425524 -13.529775 14.300927 -26.832399 -23.934222 0.513716 -16.961879 -16.021972 1.801472 12.905570 -56.819711 -7.231981 5.625018 -12.586347 -16.439704 31.014150 29.939381 7.553480 22.639872 28.547512 -4.111770 -35.889787 41.917970 -42.565358 2.188261 13.465487 -11.855813 
0.085492 0.027293 0.836950 -174.474295 -9.050792 96.668864 14.809319 16.757270 -42.119270 -1.160720 18.714841 44.739866 -3.781944 13.245674 -15.028922 0.000000 -0.000000 0.000000 -14.004759 -6.704367 -54.291213 -0.660182 -7.983481 76.992596 1.103283 -10.518446 -29.953558 0.000000 -0.000000 0.000000 -2.764832 -1.205940 61.673188 -0.130469 -0.003875 -5.014329 1.713276 -0.424096 -5.360286 -3.827217 -1.901849 -22.235175 1.642387 -14.258039 16.189094 -27.178508 -23.974637 0.368742 -18.024895 -16.483933 2.460357 12.972537 -56.242304 -7.466869 6.160216 -12.426234 -16.272580 30.912512 29.841404 7.493456 23.273640 28.027735 -3.336061 -36.322024 41.580817 -42.875486 2.088051 11.658058 -12.460887 
0.088824 0.025711 0.838507 -175.262979 -9.333809 96.858016 14.904054 16.479179 -41.743460 -2.052225 17.998633 44.123457 -3.866162 12.368845 -15.788601 0.000000 -0.000000 0.000000 -14.012513 -5.989984 -54.639493 -0.465006 -7.723147 76.565324 1.356780 -10.659467 -29.702888 0.000000 -0.000000 0.000000 -2.722239 -1.670642 61.408786 0.019852 -0.010580 -5.286791 1.587678 -0.484857 -5.124566 -3.296146 -2.114311 -21.915291 1.451132 -14.676109 19.047419 -27.379157 -23.680594 0.390403 -19.194435 -17.255923 2.907878 13.007897 -55.849954 -7.449726 6.142497 -12.916044 -15.764822 30.872609 29.541728 7.340143 23.124617 28.290734 -3.385157 -35.209950 41.317516 -42.109584 3.168184 12.576204 -12.555667 
0.090358 0.024296 0.838742 -176.204164 -9.611307 97.312910 15.055105 16.366307 -41.628062 -3.519640 17.245483 43.399041 -4.210393 10.404370 -16.371566 0.000000 -0.000000 0.000000 -14.185625 -5.685757 -55.450120 0.466864 -7.486024 76.366160 1.362054 -10.992413 -29.435856 0.000000 -0.000000 0.000000 -2.466179 -2.114224 60.642088 0.104069 -0.208544 -5.010196 1.442155 -0.526415 -5.237603 -3.012911 -2.467902 -20.911426 1.732446 -14.677110 20.882476 -27.632612 -23.679654 0.702118 -20.333809 -17.377358 3.356777 13.695937 -56.200179 -7.415923 5.950432 -12.782313 -15.232705 30.926640 29.285175 7.827339 22.821902 28.012528 -3.846140 -35.085235 41.779926 -41.749769 3.334427 12.208711 -12.945598 
0.091264 0.023134 0.839775 -177.359194 -9.853971 97.747026 15.175686 16.249884 -41.359501 -4.869580 16.127916 42.709569 -4.793633 8.885692 -16.305534 0.000000 -0.000000 0.000000 -14.533314 -5.653752 -55.816193 0.606830 -7.720107 75.790840 1.200046 -9.946500 -29.283393 0.000000 -0.000000 0.000000 -2.398547 -2.413765 60.511986 0.179807 -0.231829 -5.248583 1.361395 -0.516424 -5.123617 -2.499892 -2.515472 -20.264076 1.618752 -15.017830 22.447586 -27.762611 -23.493755 0.522744 -21.447073 -17.930939 4.056405 13.990056 -56.515408 -6.775858 5.616722 -12.955925 -15.043063 30.855072 28.874165 7.616608 22.750555 27.790392 -3.714494 -35.016306 42.007372 -41.107515 3.308341 12.225430 -13.523743 
0.090956 0.021942 0.840115 -178.688004 -10.031519 98.042635 15.396648 16.143591 -40.900043 -5.660648 15.530133 42.496240 -5.445153 8.032677 -15.902671 0.000000 -0.000000 0.000000 -14.694944 -5.293358 -56.315520 0.738632 -7.539672 75.615307 1.228547 -9.301096 -29.020614 0.000000 -0.000000 0.000000 -2.346599 -2.632978 60.365243 0.365417 -0.318242 -5.149327 1.380605 -0.540500 -5.054902 -2.416858 -2.504244 -19.342820 1.653737 -15.122729 22.993090 -27.892690 -23.510131 0.651841 -22.327725 -18.240660 4.398488 14.601621 -56.816781 -6.854670 5.542351 -13.220030 -14.473851 30.776042 28.770580 7.990783 22.122529 27.656483 -4.426564 -34.776010 42.347621 -40.336862 3.498021 12.077653 -13.997143 
0.089857 0.021192 0.839928 179.609966 -10.110343 98.174859 15.878548 16.313261 -40.118109 -6.185544 15.473809 42.336151 -6.153241 7.964374 -14.756687 0.000000 -0.000000 0.000000 -14.911796 -5.042201 -56.697576 0.951171 -7.535816 75.511615 1.228812 -8.081968 -28.874917 0.000000 -0.000000 0.000000 -2.484946 -2.736327 60.482065 0.479562 -0.335385 -4.604463 1.380378 -0.511532 -5.214629 -2.414470 -2.059070 -19.271692 1.323585 -15.456128 23.837688 -27.397356 -23.569552 0.405485 -23.407210 -18.504527 5.013417 15.186466 -57.011578 -7.245406 5.278413 -12.841099 -14.719038 30.391562 28.929427 7.668684 22.108852 28.027502 -4.468990 -34.599195 41.691178 -39.926489 3.806776 12.166084 -14.265743 
